<svg xmlns="http://www.w3.org/2000/svg" viewBox="0 0 400 300" fill="none">
  <style>
    @keyframes pulseGlow {
      0%, 100% { opacity: 0.4; filter: drop-shadow(0 0 10px #3b82f6); }
      50% { opacity: 0.8; filter: drop-shadow(0 0 25px #60a5fa); }
    }
    @keyframes scan {
      0% { transform: translateY(-20px); opacity: 0; filter: blur(2px); }
      30% { opacity: 0.8; filter: blur(0px); }
      70% { opacity: 0.8; filter: blur(0px); }
      100% { transform: translateY(40px); opacity: 0; filter: blur(2px); }
    }
    @keyframes blinkData {
      0%, 100% { opacity: 0.2; transform: scale(0.8); }
      50% { opacity: 1; transform: scale(1.2); fill: #93c5fd; }
    }
    @keyframes dashStream {
      to { stroke-dashoffset: -30; }
    }
    .glow { transform-origin: center; animation: pulseGlow 3s ease-in-out infinite; }
    .scan-line { animation: scan 3s ease-in-out infinite; }
    .data-dot { transform-origin: center; animation: blinkData 2s ease-in-out infinite; }
    .dash-line { 
      stroke-dasharray: 6,6; 
      animation: dashStream 1.5s linear infinite;
    }
  </style>
  
  <rect width="400" height="300" fill="#0a0a0a"/>
  
  <defs>
    <radialGradient id="dbGlow" cx="50%" cy="50%">
      <stop offset="0%" style="stop-color:#3b82f6;stop-opacity:0.3"/>
      <stop offset="100%" style="stop-color:#3b82f6;stop-opacity:0"/>
    </radialGradient>
  </defs>
  
  <circle cx="200" cy="150" r="100" fill="url(#dbGlow)" class="glow"/>
  
  <g transform="translate(200, 150)">
    <ellipse cx="0" cy="-50" rx="60" ry="15" fill="#1e293b" stroke="#3b82f6" stroke-width="2"/>
    <rect x="-60" y="-50" width="120" height="30" fill="#1e293b"/>
    <ellipse cx="0" cy="-20" rx="60" ry="15" fill="#0f172a" stroke="#3b82f6" stroke-width="2"/>
    
    <ellipse cx="0" cy="0" rx="60" ry="15" fill="#1e293b" stroke="#3b82f6" stroke-width="2"/>
    <rect x="-60" y="0" width="120" height="30" fill="#1e293b"/>
    <ellipse cx="0" cy="30" rx="60" ry="15" fill="#0f172a" stroke="#3b82f6" stroke-width="2"/>
    
    <ellipse cx="0" cy="50" rx="60" ry="15" fill="#1e293b" stroke="#3b82f6" stroke-width="2"/>
    <rect x="-60" y="50" width="120" height="30" fill="#1e293b"/>
    <ellipse cx="0" cy="80" rx="60" ry="15" fill="#0f172a" stroke="#3b82f6" stroke-width="2"/>
    
    <circle cx="-35" cy="-35" r="3" fill="#3b82f6" class="data-dot" style="animation-delay: 0s"/>
    <circle cx="-15" cy="-35" r="3" fill="#3b82f6" class="data-dot" style="animation-delay: 0.2s"/>
    <circle cx="5" cy="-35" r="3" fill="#3b82f6" class="data-dot" style="animation-delay: 0.4s"/>
    
    <circle cx="-35" cy="15" r="3" fill="#3b82f6" class="data-dot" style="animation-delay: 0.6s"/>
    <circle cx="-15" cy="15" r="3" fill="#3b82f6" class="data-dot" style="animation-delay: 0.8s"/>
    <circle cx="5" cy="15" r="3" fill="#3b82f6" class="data-dot" style="animation-delay: 1s"/>
    
    <circle cx="-35" cy="65" r="3" fill="#3b82f6" class="data-dot" style="animation-delay: 1.2s"/>
    <circle cx="-15" cy="65" r="3" fill="#3b82f6" class="data-dot" style="animation-delay: 1.4s"/>
    <circle cx="5" cy="65" r="3" fill="#3b82f6" class="data-dot" style="animation-delay: 1.6s"/>
    
    <line x1="-60" y1="-40" x2="60" y2="-40" stroke="#3b82f6" stroke-width="2" opacity="0.6" class="scan-line" style="animation-delay: 0s"/>
    <line x1="-60" y1="10" x2="60" y2="10" stroke="#3b82f6" stroke-width="2" opacity="0.6" class="scan-line" style="animation-delay: 0.7s"/>
    <line x1="-60" y1="60" x2="60" y2="60" stroke="#3b82f6" stroke-width="2" opacity="0.6" class="scan-line" style="animation-delay: 1.4s"/>
  </g>
  
  <g opacity="0.4">
    <line x1="80" y1="100" x2="140" y2="100" stroke="#3b82f6" stroke-width="2" class="dash-line"/>
    <line x1="260" y1="100" x2="320" y2="100" stroke="#3b82f6" stroke-width="2" class="dash-line"/>
    <line x1="80" y1="150" x2="140" y2="150" stroke="#3b82f6" stroke-width="2" class="dash-line"/>
    <line x1="260" y1="150" x2="320" y2="150" stroke="#3b82f6" stroke-width="2" class="dash-line"/>
    <line x1="80" y1="200" x2="140" y2="200" stroke="#3b82f6" stroke-width="2" class="dash-line"/>
    <line x1="260" y1="200" x2="320" y2="200" stroke="#3b82f6" stroke-width="2" class="dash-line"/>
  </g>
  
  <g transform="translate(320, 80)" opacity="0.6">
    <circle cx="0" cy="0" r="15" fill="none" stroke="#3b82f6" stroke-width="2" class="glow"/>
    <line x1="12" y1="12" x2="22" y2="22" stroke="#3b82f6" stroke-width="2" stroke-linecap="round"/>
  </g>
</svg>
