<svg xmlns="http://www.w3.org/2000/svg" viewBox="0 0 400 300" fill="none">
  <style>
    @keyframes pulse {
      0%, 100% { opacity: 0.3; }
      50% { opacity: 0.6; }
    }
    @keyframes alertPulse {
      0%, 100% { transform: scale(1); opacity: 0.3; }
      50% { transform: scale(1.05); opacity: 0.6; }
    }
    @keyframes ringExpand {
      0% { r: 70; opacity: 0.3; }
      100% { r: 100; opacity: 0; }
    }
    @keyframes blink {
      0%, 100% { opacity: 0.5; }
      50% { opacity: 1; }
    }
    @keyframes shake {
      0%, 100% { transform: translate(200px, 100px) rotate(0deg); }
      25% { transform: translate(198px, 100px) rotate(-1deg); }
      75% { transform: translate(202px, 100px) rotate(1deg); }
    }
    .glow { animation: pulse 3s ease-in-out infinite; }
    .alert { animation: alertPulse 2s ease-in-out infinite; }
    .ring { animation: ringExpand 2s ease-out infinite; }
    .indicator { animation: blink 1.5s ease-in-out infinite; }
    .triangle { animation: shake 3s ease-in-out infinite; }
  </style>
  
  <rect width="400" height="300" fill="#0a0a0a"/>
  
  <defs>
    <radialGradient id="alertGlow" cx="50%" cy="50%">
      <stop offset="0%" style="stop-color:#ef4444;stop-opacity:0.3"/>
      <stop offset="100%" style="stop-color:#ef4444;stop-opacity:0"/>
    </radialGradient>
  </defs>
  
  <circle cx="200" cy="120" r="100" fill="url(#alertGlow)" class="glow"/>
  
  <g class="triangle">
    <path d="M0,-50 L50,40 L-50,40 Z" fill="none" stroke="#ef4444" stroke-width="3"/>
    <path d="M0,-35 L35,30 L-35,30 Z" fill="#1e293b" stroke="#ef4444" stroke-width="2"/>
    
    <line x1="0" y1="-15" x2="0" y2="10" stroke="#ef4444" stroke-width="3" stroke-linecap="round"/>
    <circle cx="0" cy="20" r="2.5" fill="#ef4444"/>
  </g>
  
  <circle cx="200" cy="100" r="70" fill="none" stroke="#ef4444" stroke-width="1" opacity="0.3" class="ring" style="animation-delay: 0s"/>
  <circle cx="200" cy="100" r="70" fill="none" stroke="#ef4444" stroke-width="1" opacity="0.3" class="ring" style="animation-delay: 0.7s"/>
  <circle cx="200" cy="100" r="70" fill="none" stroke="#ef4444" stroke-width="1" opacity="0.3" class="ring" style="animation-delay: 1.4s"/>
  
  <g opacity="0.5">
    <rect x="50" y="80" width="60" height="6" rx="3" fill="#ef4444" class="indicator" style="animation-delay: 0s"/>
    <rect x="60" y="95" width="50" height="5" rx="2.5" fill="#ef4444" opacity="0.7" class="indicator" style="animation-delay: 0.2s"/>
    <rect x="55" y="108" width="55" height="5" rx="2.5" fill="#ef4444" opacity="0.7" class="indicator" style="animation-delay: 0.4s"/>
    
    <rect x="290" y="80" width="60" height="6" rx="3" fill="#ef4444" class="indicator" style="animation-delay: 0.6s"/>
    <rect x="290" y="95" width="50" height="5" rx="2.5" fill="#ef4444" opacity="0.7" class="indicator" style="animation-delay: 0.8s"/>
    <rect x="290" y="108" width="55" height="5" rx="2.5" fill="#ef4444" opacity="0.7" class="indicator" style="animation-delay: 1s"/>
  </g>
  
  <g transform="translate(200, 220)">
    <rect x="-120" y="0" width="240" height="50" rx="10" fill="#1e293b" stroke="#ef4444" stroke-width="1.5" opacity="0.6" class="alert"/>
    
    <circle cx="-80" cy="25" r="12" fill="none" stroke="#ef4444" stroke-width="2" class="indicator" style="animation-delay: 0s"/>
    <line x1="-80" y1="18" x2="-80" y2="28" stroke="#ef4444" stroke-width="2" stroke-linecap="round"/>
    <circle cx="-80" cy="32" r="1.5" fill="#ef4444"/>
    
    <circle cx="0" cy="25" r="12" fill="none" stroke="#f59e0b" stroke-width="2" class="indicator" style="animation-delay: 0.3s"/>
    <line x1="0" y1="18" x2="0" y2="28" stroke="#f59e0b" stroke-width="2" stroke-linecap="round"/>
    <circle cx="0" cy="32" r="1.5" fill="#f59e0b"/>
    
    <circle cx="80" cy="25" r="12" fill="none" stroke="#ef4444" stroke-width="2" class="indicator" style="animation-delay: 0.6s"/>
    <path d="M72,25 L76,29 L88,17" fill="none" stroke="#ef4444" stroke-width="2" stroke-linecap="round"/>
  </g>
</svg>
